<?xml version="1.0" encoding="UTF-8"?>
<!DOCTYPE svg PUBLIC "-//W3C//DTD SVG 1.1//EN" "http://www.w3.org/Graphics/SVG/1.1/DTD/svg11.dtd">
<svg xmlns="http://www.w3.org/2000/svg" version="1.1" width="1577px" height="907px" style="shape-rendering:geometricPrecision; text-rendering:geometricPrecision; image-rendering:optimizeQuality; fill-rule:evenodd; clip-rule:evenodd" xmlns:xlink="http://www.w3.org/1999/xlink">
<g><path style="opacity:0.992" fill="#00aeef" d="M 518.5,-0.5 C 601.167,-0.5 683.833,-0.5 766.5,-0.5C 1023,0.941636 1279.67,2.1083 1536.5,3C 1548.53,3.22321 1560.53,3.88988 1572.5,5C 1573.98,5.66218 1575.32,6.49551 1576.5,7.5C 1576.5,10.8333 1576.5,14.1667 1576.5,17.5C 1531.77,93.94 1487.27,170.607 1443,247.5C 1442.05,249.57 1440.55,251.07 1438.5,252C 1324.33,251.765 1210.33,250.931 1096.5,249.5C 1096.67,248.178 1096.34,247.011 1095.5,246C 1099.97,227.328 1103.8,208.494 1107,189.5C 1108.52,138.375 1089.02,97.5415 1048.5,67C 1027.84,54.9156 1005.51,48.249 981.5,47C 817.568,46.3018 653.568,45.6352 489.5,45C 484.933,43.0372 483.1,39.5372 484,34.5C 489.708,23.47 496.208,12.97 503.5,3C 508.586,1.62032 513.586,0.45365 518.5,-0.5 Z"/></g>
<g><path style="opacity:0.992" fill="#00aeef" d="M 1060.5,332.5 C 1165.83,332.333 1271.17,332.5 1376.5,333C 1381.07,333.523 1385.24,335.023 1389,337.5C 1389.65,340.594 1389.32,343.594 1388,346.5C 1344.6,421.576 1301.6,496.909 1259,572.5C 1257.41,575.756 1254.91,577.923 1251.5,579C 1161.26,579.158 1070.93,578.658 980.5,577.5C 965.126,577.571 949.793,577.904 934.5,578.5C 923.213,577.688 911.879,577.188 900.5,577C 899.299,576.097 898.465,574.931 898,573.5C 893.531,558.428 888.865,543.428 884,528.5C 870.008,503.522 849.174,487.022 821.5,479C 816.239,477.615 810.906,476.615 805.5,476C 622.187,475.146 438.854,474.479 255.5,474C 252.123,473.548 248.789,472.882 245.5,472C 244.333,471.5 243.5,470.667 243,469.5C 242.315,461.221 244.648,453.888 250,447.5C 256.121,440.523 263.621,435.69 272.5,433C 477.833,433.329 683.166,433.329 888.5,433C 934.651,429.181 975.651,412.848 1011.5,384C 1027.39,366.28 1043.72,349.113 1060.5,332.5 Z"/></g>
<g><path style="opacity:0.993" fill="#00aeef" d="M 1068.5,906.5 C 713.5,906.5 358.5,906.5 3.5,906.5C 2.20498,905.512 0.871651,904.512 -0.5,903.5C -0.5,901.167 -0.5,898.833 -0.5,896.5C 5.58017,887.237 11.9135,878.07 18.5,869C 24.1554,866.232 30.1554,864.898 36.5,865C 235.167,864.667 433.833,864.333 632.5,864C 718.698,853.183 785.864,812.017 834,740.5C 846.532,715.886 858.865,691.219 871,666.5C 872.046,664.91 873.213,663.41 874.5,662C 981.124,660.342 1087.79,660.009 1194.5,661C 1203.03,662.192 1205.53,666.692 1202,674.5C 1159.15,748.874 1116.81,823.541 1075,898.5C 1072.97,901.355 1070.8,904.022 1068.5,906.5 Z"/></g>
</svg>
